<?xml version="1.0" standalone="no"?>
<!DOCTYPE svg PUBLIC "-//W3C//DTD SVG 20010904//EN"
 "http://www.w3.org/TR/2001/REC-SVG-20010904/DTD/svg10.dtd">
<svg version="1.0" xmlns="http://www.w3.org/2000/svg"
 width="300.000000pt" height="300.000000pt" viewBox="0 0 300.000000 300.000000"
 preserveAspectRatio="xMidYMid meet">
<metadata>
Created by potrace 1.10, written by Peter Selinger 2001-2011
</metadata>
<g transform="translate(0.000000,300.000000) scale(0.100000,-0.100000)"
fill="#000000" stroke="none">
<path d="M445 2642 c-38 -6 -64 -25 -80 -57 -13 -29 -15 -134 -15 -849 0 -891
-1 -870 57 -899 17 -9 75 -17 148 -20 320 -16 593 -115 796 -289 31 -26 60
-48 63 -48 4 0 5 384 4 853 l-3 854 -30 43 c-133 194 -354 331 -620 384 -80
16 -283 34 -320 28z"/>
<path d="M2425 2638 c-364 -25 -642 -165 -810 -408 l-30 -43 -3 -854 c-1 -469
0 -853 4 -853 3 0 32 22 63 48 203 174 476 273 796 289 73 3 131 11 148 20 58
29 57 8 57 899 0 715 -2 820 -15 849 -27 56 -57 63 -210 53z"/>
<path d="M54 2259 c-11 -6 -28 -23 -37 -39 -16 -26 -17 -104 -17 -905 0 -762
2 -880 15 -905 29 -56 74 -62 227 -31 258 53 616 67 853 32 72 -11 139 -22
150 -26 34 -11 -44 52 -129 105 -148 92 -339 145 -578 160 -198 13 -274 53
-330 175 l-23 50 -3 698 -3 697 -52 -1 c-29 0 -61 -5 -73 -10z"/>
<path d="M2818 1573 l-3 -698 -23 -50 c-56 -122 -132 -162 -330 -175 -239 -15
-430 -68 -578 -160 -85 -53 -163 -116 -129 -105 11 4 79 15 150 26 237 35 595
21 853 -32 153 -31 198 -25 227 31 13 25 15 143 15 905 0 800 -1 879 -17 905
-21 36 -52 50 -113 50 l-49 0 -3 -697z"/>
</g>
</svg>
